<svg width="132" height="109" viewBox="0 0 132 109" fill="none" xmlns="http://www.w3.org/2000/svg">
<path d="M0.8708 108.612C1.98013 103.663 2.9188 97.9883 3.6868 91.5883C4.54013 85.1883 5.26547 78.447 5.8628 71.3643C6.46013 64.2817 6.97213 57.2417 7.3988 50.2443C7.82547 43.247 8.12413 36.6763 8.2948 30.5323C8.46547 24.303 8.5508 18.8843 8.5508 14.2763C8.5508 11.9723 8.5508 9.92433 8.5508 8.13232C8.5508 6.25499 8.46547 4.76166 8.2948 3.65233C8.20947 2.62833 8.46547 1.86033 9.0628 1.34833C9.74547 0.750992 10.4281 0.452324 11.1108 0.452324C12.3908 0.452324 13.0308 1.04966 13.0308 2.24432C13.0308 5.91366 12.9028 10.735 12.6468 16.7083C12.3908 22.5963 12.0495 29.0817 11.6228 36.1643C11.2815 43.1617 10.8121 50.287 10.2148 57.5403C9.7028 64.7937 9.14813 71.6203 8.5508 78.0203C7.95347 84.335 7.35613 89.7537 6.7588 94.2763C6.16147 98.8843 5.56413 101.999 4.9668 103.62C4.54013 104.986 3.98547 106.138 3.3028 107.076C2.62013 108.1 2.06547 108.612 1.6388 108.612C1.55347 108.612 1.3828 108.612 1.1268 108.612C0.956134 108.698 0.8708 108.698 0.8708 108.612ZM55.3988 78.0203C54.8015 78.0203 54.3321 77.8923 53.9908 77.6363C53.6495 77.3803 53.6068 77.039 53.8628 76.6123C54.8015 74.9057 55.9535 72.687 57.3188 69.9563C58.6841 67.2257 60.1348 64.2817 61.6708 61.1243C59.7081 61.2097 57.6601 61.295 55.5268 61.3803C53.4788 61.4657 51.4308 61.551 49.3828 61.6363C48.1028 64.5377 46.9508 67.055 45.9268 69.1883C44.9028 71.2363 44.1348 72.7297 43.6228 73.6683C43.3668 74.1803 42.8548 74.5643 42.0868 74.8203C41.3188 75.0763 40.5935 75.2043 39.9108 75.2043C39.3135 75.2043 38.8441 75.119 38.5028 74.9483C38.1615 74.6923 38.1188 74.351 38.3748 73.9243C38.8015 73.1563 39.4841 71.5777 40.4228 69.1883C41.4468 66.7137 42.5135 64.2817 43.6228 61.8923L37.8628 62.2763C37.4361 62.2763 36.7535 62.0203 35.8148 61.5083C34.8761 60.9963 34.1081 60.4843 33.5108 59.9723C32.9135 59.375 32.8708 59.0763 33.3828 59.0763C35.5161 58.9057 37.5641 58.7777 39.5268 58.6923C41.4895 58.607 43.4095 58.5217 45.2868 58.4363C45.4575 58.095 45.7561 57.8817 46.1828 57.7963C46.6095 57.6257 46.8655 57.3697 46.9508 57.0283C48.0601 54.8097 49.5108 51.951 51.3028 48.4523C53.1801 44.9537 55.0148 41.2843 56.8068 37.4443C55.0148 37.5297 53.2228 37.615 51.4308 37.7003C49.6388 37.7857 47.8468 37.9137 46.0548 38.0843C45.6281 38.0843 44.9455 37.8283 44.0068 37.3163C43.0681 36.8043 42.3001 36.2923 41.7028 35.7803C41.1055 35.183 41.0628 34.8843 41.5748 34.8843C47.7188 34.3723 53.3081 34.1163 58.3428 34.1163C59.7935 30.8737 61.0308 27.8017 62.0548 24.9003C63.1641 21.9137 63.7615 19.3963 63.8468 17.3483C64.0175 15.6417 64.3588 14.7883 64.8708 14.7883C65.2975 14.7883 65.5108 15.5137 65.5108 16.9643C65.5108 18.5003 65.0841 20.8043 64.2308 23.8763C63.4628 26.863 62.3535 30.2337 60.9028 33.9883C63.3775 33.9883 65.6815 33.9883 67.8148 33.9883C69.9481 33.9883 71.9535 34.031 73.8308 34.1163C75.5375 30.0203 76.9455 26.3083 78.0548 22.9803C79.2495 19.567 79.8895 16.9217 79.9748 15.0443C80.1455 13.423 80.4441 12.6123 80.8708 12.6123C81.3828 12.6123 81.6388 13.551 81.6388 15.4283C81.6388 17.3057 81.2121 19.9083 80.3588 23.2363C79.5055 26.5643 78.3535 30.2337 76.9028 34.2443C82.3641 34.671 86.5028 35.055 89.3188 35.3963C89.8308 35.4817 90.0868 35.6523 90.0868 35.9083C90.0868 36.335 89.5748 36.5483 88.5508 36.5483C86.6735 36.5483 84.6681 36.591 82.5348 36.6763C80.4868 36.6763 78.3108 36.719 76.0068 36.8043C74.6415 40.3883 73.1908 44.0577 71.6548 47.8123C70.2041 51.4817 68.7535 55.023 67.3028 58.4363C70.2895 58.5217 72.9348 58.6923 75.2388 58.9483C77.5428 59.2043 79.5055 59.4603 81.1268 59.7163C81.6388 59.7163 81.8948 59.8443 81.8948 60.1003C81.8948 60.527 81.3828 60.7403 80.3588 60.7403C78.3108 60.8257 76.0921 60.8683 73.7028 60.8683C71.3135 60.8683 68.8388 60.911 66.2788 60.9963C64.6575 64.6657 63.2068 67.9083 61.9268 70.7243C60.6468 73.5403 59.7081 75.4177 59.1108 76.3563C58.8548 76.8683 58.3428 77.295 57.5748 77.6363C56.8068 77.8923 56.0815 78.0203 55.3988 78.0203ZM50.9188 58.3083C52.1135 58.223 53.2228 58.1803 54.2468 58.1803C55.2708 58.1803 56.2948 58.1803 57.3188 58.1803C58.3428 58.1803 59.3241 58.1803 60.2628 58.1803C61.2868 58.1803 62.2255 58.223 63.0788 58.3083C64.7001 54.8097 66.3215 51.2257 67.9428 47.5563C69.6495 43.887 71.2281 40.303 72.6788 36.8043C70.5455 36.8897 68.4121 36.975 66.2788 37.0603C64.1455 37.1457 61.9695 37.231 59.7508 37.3163C58.3855 40.815 56.9348 44.399 55.3988 48.0683C53.8628 51.6523 52.3695 55.0657 50.9188 58.3083ZM95.8548 95.5563C94.9161 95.5563 94.4468 95.0443 94.4468 94.0203C94.4468 93.5083 94.6175 93.039 94.9588 92.6123C95.7268 91.5883 96.9215 89.839 98.5428 87.3643C100.164 84.975 101.999 82.2017 104.047 79.0443C106.18 75.8017 108.356 72.4737 110.575 69.0603C112.793 65.5617 114.884 62.2763 116.847 59.2043C118.895 56.047 120.644 53.3163 122.095 51.0123C123.545 48.7083 124.569 47.1723 125.167 46.4043C124.569 45.1243 123.545 43.2043 122.095 40.6443C120.729 37.999 119.151 35.055 117.359 31.8123C115.567 28.5697 113.775 25.2843 111.983 21.9563C110.191 18.543 108.569 15.4283 107.119 12.6123C105.668 9.711 104.601 7.407 103.919 5.70033C103.577 4.93232 103.407 4.12166 103.407 3.26833C103.407 2.24433 103.663 1.73233 104.175 1.73233C104.687 1.73233 105.241 2.28699 105.839 3.39632C107.119 5.70033 108.783 8.43099 110.831 11.5883C112.879 14.6603 115.055 17.8603 117.359 21.1883C119.748 24.5163 122.009 27.759 124.143 30.9163C126.276 33.9883 128.025 36.719 129.391 39.1083C130.841 41.4977 131.695 43.2897 131.951 44.4843C131.865 45.5937 131.097 47.3857 129.647 49.8603C128.196 52.335 126.319 55.2363 124.015 58.5643C121.711 61.8923 119.193 65.391 116.463 69.0603C113.817 72.6443 111.215 76.1003 108.655 79.4283C106.095 82.7563 103.833 85.7003 101.871 88.2603C99.9081 90.9057 98.5001 92.8257 97.6468 94.0203C97.2201 95.0443 96.6228 95.5563 95.8548 95.5563Z" fill="white"/>
</svg>
